<?xml version="1.0" standalone="no"?>
<!DOCTYPE svg PUBLIC "-//W3C//DTD SVG 20010904//EN"
 "http://www.w3.org/TR/2001/REC-SVG-20010904/DTD/svg10.dtd">
<svg version="1.0" xmlns="http://www.w3.org/2000/svg"
 width="970.000000pt" height="970.000000pt" viewBox="0 0 970.000000 970.000000"
 preserveAspectRatio="xMidYMid meet">
<g transform="translate(0.000000,970.000000) scale(0.100000,-0.100000)"
fill="#000000" stroke="none">
<path d="M4735 9688 c-98 -11 -234 -52 -324 -97 -42 -20 -249 -138 -461 -260
-212 -123 -473 -274 -580 -336 -107 -62 -213 -123 -235 -135 -22 -13 -53 -31
-70 -41 -16 -10 -41 -24 -55 -32 -31 -17 -803 -462 -1130 -652 -135 -78 -265
-153 -290 -167 -25 -14 -96 -55 -158 -92 -62 -36 -132 -77 -155 -90 -23 -13
-82 -46 -131 -75 -49 -28 -91 -51 -93 -51 -2 0 -39 -23 -81 -52 -149 -100
-294 -267 -358 -416 -14 -31 -29 -64 -33 -73 -5 -8 -19 -55 -32 -105 l-24 -89
0 -2075 0 -2075 23 -82 c24 -88 30 -105 69 -193 61 -134 177 -276 308 -375 41
-30 76 -55 79 -55 3 0 30 -16 61 -35 30 -19 65 -40 77 -45 22 -10 34 -17 88
-51 14 -9 45 -27 70 -41 25 -14 191 -109 370 -213 352 -203 346 -200 471 -271
46 -26 112 -65 146 -86 34 -21 64 -38 66 -38 3 0 89 -49 192 -110 103 -60 189
-110 190 -110 2 0 140 -79 307 -176 166 -97 326 -189 353 -204 81 -45 419
-241 430 -249 6 -5 35 -22 65 -38 73 -40 315 -180 364 -211 74 -46 231 -120
301 -141 189 -58 383 -60 571 -5 92 26 206 77 267 118 21 14 40 26 41 26 4 0
27 13 221 125 55 31 116 66 135 77 71 41 195 113 211 123 9 6 44 26 79 45 35
19 70 40 79 45 9 6 48 28 86 50 39 21 110 63 158 92 48 29 89 53 92 53 2 0 36
19 77 43 40 24 93 55 118 69 25 14 203 117 395 228 193 111 366 211 385 222
19 11 141 81 270 156 129 74 280 161 335 193 55 31 118 68 140 82 22 14 63 37
90 53 200 110 440 255 495 299 198 158 324 372 366 620 11 65 13 451 11 2125
l-3 2045 -22 75 c-87 301 -250 508 -519 656 -28 16 -166 95 -305 175 -139 81
-302 175 -363 210 -60 34 -126 72 -145 84 -28 18 -385 224 -545 315 -93 53
-424 244 -585 338 -19 11 -57 33 -85 48 -27 15 -74 42 -103 60 -29 19 -54 34
-57 34 -2 0 -42 22 -87 49 -69 40 -194 113 -438 253 -644 371 -662 381 -770
416 -124 40 -278 55 -415 40z"/>
</g>
</svg>
