<svg width="387" height="149" viewBox="0 0 387 149" fill="none" xmlns="http://www.w3.org/2000/svg">
<path d="M50.7768 27.8628H28.8068V120.863H50.7768V27.8628Z" fill="#35383A"/>
<path d="M67.3483 31.6531H56.4244V109.652H67.3483V31.6531Z" fill="#35383A"/>
<path d="M80.9775 38.3235H71.8655V102.974H80.9775V38.3235Z" fill="#35383A"/>
<path d="M91.0934 42.5999H84.6991V98.6973H91.0934V42.5999Z" fill="#35383A"/>
<path d="M98.1488 46.8889H93.958V94.4086H98.1488V46.8889Z" fill="#35383A"/>
<path d="M102.731 50.7285H100.593V90.5686H102.731V50.7285Z" fill="#35383A"/>
<path d="M130.916 89.7241V52.4302H146.333C154.07 52.4302 159.068 57.1846 159.068 64.1103C159.068 71.0359 154.07 75.8151 146.333 75.8151H136.719V89.7241H130.916ZM136.719 70.5457H146.084C150.642 70.5457 153.017 67.6905 153.017 64.1185C153.017 60.5465 150.642 57.6914 146.084 57.6914H136.719V70.5539V70.5457Z" fill="#35383A"/>
<path d="M162.435 89.7239V63.3355H167.932V66.9323C169.425 64.0483 171.939 62.7834 174.836 62.7834C176.905 62.7834 178.484 63.4468 178.484 63.4468L177.905 68.4443C177.599 68.333 176.411 67.8386 174.673 67.8386C171.743 67.8386 167.932 69.3754 167.932 75.3452V89.7198H162.435V89.7239Z" fill="#35383A"/>
<path d="M179.488 76.5318C179.488 68.811 185.511 62.7917 193.582 62.7917C201.654 62.7917 207.677 68.811 207.677 76.5318C207.677 84.2527 201.654 90.2719 193.582 90.2719C185.511 90.2719 179.488 84.2527 179.488 76.5318ZM193.582 85.159C198.581 85.159 202.205 81.3934 202.205 76.5318C202.205 71.6703 198.589 67.9046 193.582 67.9046C188.575 67.9046 184.96 71.6703 184.96 76.5318C184.96 81.3934 188.575 85.159 193.582 85.159Z" fill="#35383A"/>
<path d="M211.745 51.0251H217.213V66.9406C219.176 64.4398 222.163 62.7918 226.664 62.7918C234.209 62.7918 239.979 68.2919 239.979 76.3959C239.979 84.4999 234.201 90.2761 226.664 90.2761C222.159 90.2761 219.176 88.6281 217.213 86.1273V89.724H211.745V51.0251ZM226.003 85.3774C231.112 85.3774 234.515 81.2533 234.515 76.3918C234.515 71.5302 231.116 67.678 226.003 67.678C220.89 67.678 217.242 71.5302 217.242 76.3918C217.242 81.2533 220.89 85.3774 226.003 85.3774Z" fill="#35383A"/>
<path d="M257.065 62.7917C264.797 62.7917 269.833 68.5061 269.833 75.5678C269.833 76.3918 269.78 77.2446 269.608 78.0933H249.026C249.275 82.0526 252.674 85.159 257.256 85.159C260.574 85.159 263.222 83.7583 265.214 80.6518L269.249 83.5687C266.789 87.9647 261.957 90.276 257.256 90.276C249.242 90.276 243.358 84.3927 243.358 76.5648C243.358 68.7369 249.022 62.7917 257.065 62.7917ZM264.279 74.031C263.945 70.323 260.827 67.7069 257.012 67.7069C252.951 67.7069 249.858 70.3189 249.165 74.031H264.275H264.279Z" fill="#35383A"/>
<path d="M298.854 89.7239H274.024V52.4011H279.851V84.4751H298.854V89.7198V89.7239Z" fill="#35383A"/>
<path d="M313.908 73.862C317.086 73.862 319.38 74.5254 320.592 75.0939V73.6643C320.592 70.3642 317.911 67.8922 313.798 67.8922C310.509 67.8922 307.775 69.7627 306.199 71.5466L302.747 68.1394C304.792 65.5562 309.048 62.7834 313.883 62.7834C321.347 62.7834 326.072 66.7963 326.072 73.1987V89.7157H320.714V86.3085C319.082 88.7804 316.013 90.2677 312.451 90.2677C306.705 90.2677 302.204 87.3838 302.204 82.2173C302.204 77.0509 306.958 73.862 313.92 73.862H313.912H313.908ZM313.243 85.8141C317.552 85.8141 320.592 82.8724 320.592 79.2757C319.457 78.6989 316.915 78.0108 314.046 78.0108C310.594 78.0108 307.721 79.1686 307.721 82.0237C307.721 84.4133 310.125 85.8141 313.251 85.8141H313.243Z" fill="#35383A"/>
<path d="M330.569 51.0251H336.041V66.9406C338.004 64.4398 340.987 62.7918 345.492 62.7918C353.037 62.7918 358.807 68.2919 358.807 76.3959C358.807 84.4999 353.029 90.2761 345.492 90.2761C340.987 90.2761 338.004 88.6281 336.041 86.1273V89.724H330.569V51.0251ZM344.827 85.3774C349.94 85.3774 353.339 81.2533 353.339 76.3918C353.339 71.5302 349.94 67.678 344.827 67.678C339.714 67.678 336.066 71.5302 336.066 76.3918C336.066 81.2533 339.714 85.3774 344.827 85.3774Z" fill="#35383A"/>
</svg>
